<svg xmlns="http://www.w3.org/2000/svg" viewBox="0 0 222 222"><path data-name="Figure 22" d="M219.81.57a4.336 4.336 0 0 0-4.35.03L136 47.59a4.333 4.333 0 1 0 4.41 7.46l57.01-33.71L91.23 131.52l-52.82-16.16 68.93-40.75a4.34 4.34 0 0 0-4.42-7.47L25.53 112.9a4.342 4.342 0 0 0 .94 7.88l63.08 19.3 27.83 50.65a.73.73 0 0 0 .09.13 4.313 4.313 0 0 0 6.74.88l32-31.27 60.19 18.41a4.186 4.186 0 0 0 1.26.19 4.34 4.34 0 0 0 4.34-4.33V4.33a4.34 4.34 0 0 0-2.19-3.76zm-102.2 142.18a4.372 4.372 0 0 0-.77 2.47v26.52l-19-34.58 84.09-87.25zm7.9 35.59v-27.26l21.25 6.5zm87.82-9.46l-85.21-26.07 85.21-123v149.07zM71.29 150.71a4.334 4.334 0 0 0-6.14 0l-40.48 40.47a4.342 4.342 0 0 0 6.14 6.14l40.48-40.48a4.34 4.34 0 0 0 0-6.13zm-53.93 53.91a4.331 4.331 0 0 0-6.13.01l-9.97 9.97a4.335 4.335 0 1 0 6.13 6.13l9.97-9.97a4.334 4.334 0 0 0 0-6.14zm44.48 9.72a4.31 4.31 0 1 0 1.28 3.07 4.372 4.372 0 0 0-1.28-3.07zm32.27-32.26a4.352 4.352 0 0 0-6.14 0l-21.44 21.44a4.338 4.338 0 0 0 6.14 6.13l21.44-21.44a4.34 4.34 0 0 0 0-6.13zm73.99-1.65a4.34 4.34 0 0 0-6.13 0l-21.5 21.5a4.345 4.345 0 0 0 3.07 7.41 4.294 4.294 0 0 0 3.06-1.28l21.5-21.49a4.334 4.334 0 0 0 0-6.14zM122.92 59.1a4.334 4.334 0 1 0 1.27 3.07 4.371 4.371 0 0 0-1.27-3.07z" fill="#fff" fill-rule="evenodd"/></svg>